HIERARCHY
ROOT Hips
{
  OFFSET 0 0 0
  CHANNELS 6 Xposition Yposition Zposition Zrotation Yrotation Xrotation
  JOINT LeftThigh
  {
    OFFSET 8.409438 0 -5.917753
    CHANNELS 3 Zrotation Yrotation Xrotation
    JOINT LeftLeg
    {
      OFFSET 0 0 -42.358652
      CHANNELS 3 Zrotation Yrotation Xrotation
      JOINT LeftFoot
      {
        OFFSET 0 0 -39.357303
        CHANNELS 3 Zrotation Yrotation Xrotation
      }
    }
  }
  JOINT RightThigh
  {
    OFFSET -8.409438 0 -5.917753
    CHANNELS 3 Zrotation Yrotation Xrotation
    JOINT RightLeg
    {
      OFFSET 0 0 -42.358652
      CHANNELS 3 Zrotation Yrotation Xrotation
      JOINT RightFoot
      {
        OFFSET 0 0 -39.357303
        CHANNELS 3 Zrotation Yrotation Xrotation
      }
    }
  }
  JOINT SpineLow
  {
    OFFSET 0 0 4.719101
    CHANNELS 3 Zrotation Yrotation Xrotation
    JOINT SpineMid
    {
      OFFSET 0 0 12.899191
      CHANNELS 3 Zrotation Yrotation Xrotation
      JOINT Chest
      {
        OFFSET 0 0 12.899191
        CHANNELS 3 Zrotation Yrotation Xrotation
        JOINT LeftShoulder
        {
          OFFSET 7.550562 1.41573 9.438202
          CHANNELS 3 Zrotation Yrotation Xrotation
          JOINT LeftArm
          {
            OFFSET 9.155056 0 4.247191
            CHANNELS 3 Zrotation Yrotation Xrotation
            JOINT LeftForearm
            {
              OFFSET 0 0 25.771955
              CHANNELS 3 Zrotation Yrotation Xrotation
              JOINT LeftHand
              {
                OFFSET 0 0 25.197169
                CHANNELS 3 Zrotation Yrotation Xrotation
              }
            }
          }
        }
        JOINT RightShoulder
        {
          OFFSET -7.550562 1.41573 9.438202
          CHANNELS 3 Zrotation Yrotation Xrotation
          JOINT RightArm
          {
            OFFSET -9.155056 0 4.247191
            CHANNELS 3 Zrotation Yrotation Xrotation
            JOINT RightForearm
            {
              OFFSET 0 0 -25.771955
              CHANNELS 3 Zrotation Yrotation Xrotation
              JOINT RightHand
              {
                OFFSET 0 0 -25.197169
                CHANNELS 3 Zrotation Yrotation Xrotation
              }
            }
          }
        }
        JOINT Neck
        {
          OFFSET 0 0 15.101124
          CHANNELS 3 Zrotation Yrotation Xrotation
          JOINT Head
          {
            OFFSET 0 0 11.325843
            CHANNELS 3 Zrotation Yrotation Xrotation
            End Site
            {
              OFFSET 0 0 14.157303
            }
          }
        }
      }
    }
  }
}
MOTION
Frames: 17
Frame Time: 0.0
0.0  93.25843  0.0  -0.526706  -1.67619  -87.542711  5.522073  -13.699455  -14.704486  -2.817921  -0.766925  25.916005  7.227008  1.765299  5.293053  -12.030838  -1.347926  -16.364839  -17.46171  17.383099  15.653571  5.37212  3.471824  1.058981  3.700371  0.794692  -0.481114  10.101874  2.239791  -1.19053  10.101874  2.239791  -1.19053  -36.371584  13.89436  2.561959  165.491876  41.842787  -134.762998  -10.382289  -1.87847  88.754777  98.133456  9.859224  -8.995916  2.806644  -24.151197  24.450116  84.036079  52.802682  45.38975  -0.778896  0.147591  -66.521354  79.642705  -2.251647  4.259942  -16.081312  2.717182  18.828631  -12.156229  1.54506  14.202062  
0.0  93.25843  0.0  -0.466184  -6.212381  -87.246799  6.740692  -13.690129  -13.726325  -0.934105  -1.210751  25.316308  7.62497  1.876235  5.319633  -9.870021  -1.565244  -17.306039  -16.522061  16.886209  15.578426  5.585304  3.385568  1.018901  3.958625  0.843712  -0.590303  10.803507  2.395429  -1.471269  10.803508  2.395429  -1.471269  -34.574251  13.333355  2.684483  167.346404  41.043322  -134.388012  -7.845071  -5.688961  89.575915  98.212153  11.253273  -6.446338  2.168155  -23.383656  24.537155  84.478777  50.955593  44.908282  -1.830873  -6.080879  -70.011628  77.733319  -5.004441  2.659658  -15.075033  2.929817  18.991753  -11.408038  1.731798  14.323377  
0.0  93.25843  0.0  -0.384734  -11.191799  -86.956373  8.054392  -13.616335  -12.607705  0.888959  -1.565301  24.490687  8.321684  1.994924  5.372331  -7.606729  -1.686252  -18.270787  -15.639689  16.252737  15.367663  5.867832  3.216778  1.001225  4.171501  0.846272  -0.725841  11.380496  2.430044  -1.832271  11.380495  2.430044  -1.832271  -32.339305  13.017441  2.840853  169.484042  40.041719  -134.014373  -5.552326  -9.640783  90.119899  97.853817  12.282031  -3.908216  1.81013  -22.308775  24.856884  84.94988  49.148082  44.395477  -1.954229  -12.802186  -73.704934  75.76828  -7.606244  1.137194  -13.668781  3.353802  19.147697  -10.365945  2.090529  14.440296  
0.0  93.25843  0.0  -0.330541  -16.502281  -86.714109  9.10987  -13.529342  -11.251299  2.996353  -1.855977  23.490532  9.301572  2.103336  5.389218  -5.435263  -1.773989  -19.107024  -14.539984  15.454663  14.99868  6.099668  2.936802  1.046111  4.350977  0.89399  -0.841707  11.865728  2.585364  -2.13263  11.865728  2.585364  -2.132629  -30.022037  12.245004  3.063844  172.086064  38.79362  -133.636346  -3.503011  -13.372804  90.417379  97.277902  13.017314  -1.565217  1.775015  -21.599216  24.878492  85.379174  47.352413  43.990744  -0.927427  -19.467644  -77.783092  73.573881  -9.834266  -0.063802  -11.952448  3.568593  19.207028  -9.084395  2.304383  14.477002  
0.0  93.25843  0.0  -0.336256  -22.03795  -86.503716  9.854883  -13.43946  -9.765384  5.469416  -2.139901  22.342377  10.525804  2.202222  5.490708  -3.497973  -1.921562  -19.850184  -13.136025  14.601363  14.592047  6.313251  2.543524  1.080595  4.537561  0.955493  -0.925126  12.370973  2.773985  -2.340861  12.370974  2.773985  -2.34086  -27.920106  11.364553  3.416108  175.072069  37.317543  -133.11501  -1.672707  -16.927943  90.40297  96.538785  13.483674  0.199201  1.467633  -21.016808  24.598349  85.958773  45.498983  43.812328  1.490147  -25.365687  -82.552428  71.088747  -11.491799  -0.794239  -10.118565  3.651283  19.114012  -7.709669  2.425492  14.395802  
0.0  93.25843  0.0  -0.369889  -27.765092  -86.420778  10.571613  -13.338155  -8.166634  8.259708  -2.378273  21.177446  11.826789  2.239009  5.722576  -1.720382  -2.142206  -20.435688  -11.500441  13.715134  14.135335  6.50856  2.190453  1.099762  4.72624  1.00249  -1.020251  12.881463  2.926591  -2.582578  12.881463  2.92659  -2.582578  -25.884575  10.708931  4.313675  178.426656  35.337007  -132.287701  0.056434  -20.347331  90.106991  95.741448  13.836977  0.8856  0.903432  -20.397476  24.298962  86.338632  43.570593  43.79286  5.351035  -29.768575  -88.141505  68.354043  -12.342279  -1.291652  -8.014658  3.74983  19.097974  -6.133325  2.565354  14.37047  
0.0  93.25843  0.0  -0.507558  -33.639947  -86.520044  11.473268  -13.365694  -6.436405  11.294293  -2.58241  20.13354  12.803038  2.228047  6.146007  -0.11261  -2.577522  -20.653887  -9.629848  12.820684  13.506231  6.643904  1.834753  1.14672  4.88465  1.057847  -1.09583  13.30952  3.098132  -2.769992  13.30952  3.098132  -2.769992  -23.95522  9.742365  5.493592  -177.950217  32.561371  -131.54598  1.644758  -23.393905  89.631741  95.042318  14.07607  -0.400934  0.64153  -19.873271  24.165473  86.03174  42.13195  43.682852  10.393681  -32.204249  -94.411389  65.643476  -12.39038  -1.916195  -5.832233  3.689212  18.981457  -4.492578  2.588976  14.267907  
0.0  93.25843  0.0  -0.734148  -39.361122  -86.857679  12.355569  -13.557455  -4.515747  14.438266  -2.78082  19.448748  13.264497  2.267914  6.322358  1.696256  -3.181337  -20.235594  -8.20145  12.044368  12.48273  6.909559  1.486484  1.187091  4.87203  1.121507  -1.026695  13.27666  3.257002  -2.569755  13.27666  3.257002  -2.569756  -21.906571  8.295761  5.743617  -174.325853  29.536485  -131.691273  2.442475  -25.649552  89.063951  94.570825  13.963875  -4.534752  1.564457  -19.310096  23.617121  84.933333  41.28551  43.400386  15.658896  -32.692753  -100.578661  63.329606  -11.866557  -3.497373  -3.129964  3.573614  18.349015  -2.456809  2.589075  13.776015  
0.0  93.25843  0.0  -1.046932  -44.520117  -87.357329  12.940314  -13.932026  -2.507209  17.37974  -2.839189  19.082418  13.433258  2.363963  6.261977  3.5826  -3.643416  -19.306922  -7.450009  11.281506  11.26393  7.423191  1.328916  1.283661  4.816101  1.126021  -0.985617  13.125655  3.259141  -2.459878  13.125655  3.259141  -2.459878  -20.729543  7.671316  6.390362  -170.78229  27.147633  -132.433722  2.183978  -26.866103  88.346278  94.197788  13.363718  -11.964147  1.810775  -18.626263  23.722976  83.426154  40.510158  43.136459  20.525921  -31.654656  -106.050857  61.475986  -10.900709  -6.0436  -0.583539  3.555971  17.92844  -0.542556  2.652568  13.445412  
0.0  93.25843  0.0  -1.490018  -48.766986  -87.699599  13.327421  -14.173018  -0.784849  19.564916  -3.006172  18.649223  13.530752  2.458996  6.288325  5.009409  -3.957148  -18.407505  -6.830143  10.573666  10.393724  8.012062  1.207323  1.359689  5.157313  1.164996  -0.861057  14.064503  3.350494  -2.095152  14.064504  3.350494  -2.095152  -23.825821  7.051534  6.189216  -167.443496  25.214773  -134.161506  1.653396  -26.67162  87.083486  93.475425  12.199704  -22.424357  -1.447572  -17.683766  23.695141  81.138344  39.814064  42.442975  24.955616  -29.757782  -110.628886  59.965859  -9.47402  -9.510089  -0.08468  3.31852  17.364099  -0.158068  2.488866  13.019885  
0.0  93.25843  0.0  -1.987818  -51.916575  -87.537443  13.607108  -14.245521  0.029784  20.856401  -3.212822  18.395961  13.928027  2.569046  6.580366  5.335041  -4.517208  -17.743574  -5.456589  10.053242  9.710552  8.322962  1.091167  1.451369  4.924358  1.157716  -0.948416  13.422925  3.341583  -2.346681  13.422925  3.341583  -2.346681  -24.39914  6.802941  6.820434  -164.237108  23.716123  -135.739254  0.807621  -24.787791  84.625884  92.844059  10.231098  -32.297416  -2.876406  -16.653724  24.915696  78.741245  39.14325  41.804555  28.972634  -27.384932  -114.218753  58.406141  -7.317275  -13.564952  1.934099  3.281395  17.299036  1.358454  2.518218  12.960499  
0.0  93.25843  0.0  -2.170316  -53.972496  -87.345163  14.161895  -14.38072  0.178791  21.116268  -3.109804  18.500812  14.330866  2.658768  6.814947  5.591437  -4.738262  -17.161997  -4.707251  9.389829  8.840802  8.183304  1.003344  1.326782  4.541962  1.220995  -0.9974  12.372858  3.510315  -2.488473  12.372858  3.510315  -2.488473  -25.174496  6.443378  7.197451  -161.839996  22.881308  -137.04918  -1.064129  -22.035699  80.971874  94.216402  9.31934  -34.959178  -4.56609  -15.837873  25.988374  76.319356  38.426851  41.492537  31.985759  -24.226028  -117.137338  55.61267  -4.894772  -17.623397  3.836134  3.191831  17.085374  2.789596  2.503562  12.791286  
0.0  93.25843  0.0  -2.073804  -54.946581  -87.339932  14.861191  -14.479067  0.024301  20.718566  -2.918677  18.734054  14.655467  2.697027  7.035164  6.028755  -4.414702  -16.558087  -4.931528  8.387384  7.655718  7.927541  0.921324  1.408376  4.070104  1.278223  -1.076244  11.076169  3.662673  -2.719912  11.076169  3.662673  -2.719911  -25.930634  6.564617  7.351445  -160.160853  23.667805  -137.749346  -3.287769  -19.961006  75.368166  96.203956  10.030804  -28.843039  -6.143485  -14.997574  27.620685  73.394726  37.783215  41.392497  34.569199  -21.213546  -119.194628  52.470734  -1.816466  -21.222305  5.493234  3.166721  17.140341  4.03372  2.531722  12.824763  
0.0  93.25843  0.0  -2.022536  -54.975517  -87.345221  15.630593  -14.746919  -0.42574  20.126782  -2.725647  19.183805  14.799177  2.676612  7.19621  5.879501  -4.072675  -15.693979  -5.259957  7.379165  6.45834  7.876011  1.04732  1.657559  3.527523  1.286964  -1.164566  9.586624  3.678024  -2.990674  9.586625  3.678023  -2.990674  -27.040262  7.487687  6.920999  -159.108126  26.083894  -138.420476  -3.096504  -20.339484  67.412512  96.37375  11.368538  -19.512142  -7.582265  -13.978626  29.712221  70.546445  37.096732  41.581595  35.244008  -19.433335  -120.454076  49.960613  -1.007335  -24.886117  6.963204  3.288932  17.38838  5.132213  2.667805  13.002256  
0.0  93.25843  0.0  -2.020022  -54.208948  -87.479375  16.599888  -15.280775  -0.978865  19.379596  -2.510629  19.756576  14.578583  2.613121  7.255382  5.276775  -3.914088  -14.556147  -5.478232  6.788574  5.543233  7.737636  1.277531  1.617431  2.931689  1.232855  -1.247809  7.954254  3.514397  -3.258402  7.954255  3.514398  -3.258402  -28.301466  9.491044  6.81957  -158.68695  30.175965  -138.408406  -0.022644  -20.882625  57.594863  95.946242  11.605093  -10.882691  -8.42219  -12.882664  31.701793  67.357936  35.825881  41.925024  32.298646  -15.602869  -122.702241  45.942573  -4.317079  -26.85085  8.31244  3.594069  17.828133  6.133503  2.941663  13.32078  
0.0  93.25843  0.0  -2.135488  -52.901607  -87.614925  17.89582  -16.026108  -1.555884  18.381821  -2.245626  20.239982  15.528007  2.875058  8.580079  4.789971  -3.986883  -13.45386  -5.773055  6.708289  4.815313  7.611143  1.453778  1.589956  2.130852  1.107435  -1.305186  5.766705  3.138355  -3.469223  5.766705  3.138355  -3.469223  -27.951602  11.934538  6.809793  -159.549153  35.73195  -137.890914  4.934809  -17.671103  46.465427  96.097713  10.130012  -5.278952  -7.371133  -11.891748  33.914604  63.385553  34.603359  41.913849  28.990845  -11.67254  -122.566923  45.948977  -5.385896  -28.452844  10.243099  4.150161  18.280915  7.562674  3.423767  13.639693  
0.0  93.25843  0.0  -2.410121  -51.353435  -87.537242  19.548344  -16.800897  -2.192084  17.193793  -2.01991  20.478499  14.913887  2.70175  8.504933  4.687771  -4.082635  -12.915814  -6.140642  6.880125  4.676111  7.624253  1.457802  1.678918  1.517815  1.02923  -1.268294  4.095888  2.890752  -3.402567  4.095888  2.890752  -3.402566  -28.309031  13.880164  6.7855  -162.213446  42.132271  -136.546326  9.730407  -9.821412  33.853895  96.198969  7.203429  -2.37901  -7.060223  -11.515029  35.322413  59.39583  33.088321  41.888924  26.465169  -9.501273  -120.703522  50.172281  -3.567636  -29.888022  11.264949  4.511388  18.408118  8.317196  3.728301  13.721322  
